<svg xmlns="http://www.w3.org/2000/svg" width="32" height="32" viewBox="0 0 32 32">
  <rect y="14.373" width="32" height="17.627" fill="#dce11f"/>
  <rect x="1.805" y="3.044" width="28.389" height="25.911" fill="none" stroke="#231f20" stroke-miterlimit="10" stroke-width="0.143"/>
  <g>
    <path d="M4.5,21.421v-.595c2.149-.065,2.4-.554,2.4-4.66V10.421c0-4.107.212-4.575-2.426-4.66v-.6l4.894-.191a46.634,46.634,0,0,0-.405,5.447v5.745c0,4.106.256,4.595,2.405,4.66v.595Z" fill="#231f20"/>
    <path d="M12.52,27.026V25.472c2.319-.063,2.383-.17,2.383-3.276V17.09c0-3.511-.064-3.682-2.383-3.724V11.834h8.064c4.4,0,6.936.745,6.936,4.745,0,3.575-2.936,4.745-6.128,4.745H18.775v.829c0,3.107.064,3.256,2.383,3.319v1.554Zm6.255-7.49H20.18c2.212,0,3.361-.872,3.361-2.957,0-2.383-1.149-2.958-3.361-2.958H18.775Z" fill="#231f20"/>
  </g>
</svg>
