<svg xmlns="http://www.w3.org/2000/svg" width="500" height="164.125" viewBox="0 0 500 164.125">
  <rect x="52.934" y="71.265" width="394.133" height="74.774" fill="#e1ff00"/>
  <rect x="75.168" y="30.679" width="349.663" height="102.768" fill="none" stroke="#231f20" stroke-miterlimit="10" stroke-width="0.839"/>
  <g>
    <g>
      <path d="M113.668,80.16c-3.931,0-6-1.743-6-6.931,0-2.511.244-4.984.244-8.631,0-3.689-.365-3.607-5.269-3.607V59.815c6.241,0,7.619-4.458,7.781-10.537h1.54V59.41c2.27,0,4.864-.162,7.012-.324v2.067c-2.148-.122-4.742-.122-7.012-.122V71.122c0,5.148,1.257,6.607,3.161,6.607,2.675,0,3.283-2.432,3.445-4.417v-.041h1.338v.041C119.585,77.647,117.843,80.16,113.668,80.16Z" fill="#231f20"/>
      <path d="M121.849,79.35V78.215c4.093-.122,4.579-1.054,4.579-8.876V58.4c0-7.822.405-8.713-4.62-8.876V48.387l9.321-.365a91.415,91.415,0,0,0-.77,10.375v5.512a9.4,9.4,0,0,1,8.39-5.553c4.174,0,6.768,2.067,6.93,5.147.121,2.432-.162,3.4-.162,6.971,0,6.93.324,7.619,4.377,7.741V79.35H137.208V78.215c3.891-.122,4.337-1.054,4.337-8.876,0-5.106-.162-8.47-4.742-8.47-3,0-5.836,2.513-6.444,6.362v2.108c0,7.822.487,8.754,4.377,8.876V79.35Z" fill="#231f20"/>
      <path d="M161.445,80.16c-6.079,0-10.173-4.215-10.173-10.456,0-6.767,4.3-11.348,10.578-11.348,5.8,0,9.281,4.256,8.754,9.889H156.055v.324c0,5.957,2.512,9.606,6.687,9.606,3.769,0,6.362-2.23,6.808-5.836l1.378.162C170.482,76.958,166.511,80.16,161.445,80.16ZM156.1,67.029H165.9c.405-4.337-1.378-7.457-4.256-7.457C158.446,59.572,156.46,62.288,156.1,67.029Z" fill="#231f20"/>
      <path d="M187.175,79.35V78.215c4.094-.122,4.58-1.054,4.58-8.876V58.4c0-7.822.405-8.713-4.62-8.876V48.387l9.321-.365a88.832,88.832,0,0,0-.77,10.375V69.339c0,7.822.486,8.754,4.58,8.876V79.35Z" fill="#231f20"/>
      <path d="M212.085,80.16c-6.2,0-10.658-4.62-10.658-11.023a10.7,10.7,0,1,1,21.4,0C222.825,75.5,218.286,80.16,212.085,80.16Zm0-1.216c3.648,0,5.958-3.769,5.958-9.685,0-5.958-2.31-9.687-5.958-9.687-3.606,0-5.876,3.729-5.876,9.687C206.209,75.175,208.479,78.944,212.085,78.944Z" fill="#231f20"/>
      <path d="M236.658,80.16c-5.714,0-10.172-3.768-10.172-10.456,0-5.633,3.485-11.348,11.347-11.348,4.864,0,7.66,2.756,7.66,5.715,0,2.27-1.337,3.323-2.756,3.323a2.524,2.524,0,0,1-2.675-2.674c0-1.621,1.014-2.19,1.014-3.365,0-1.012-.892-1.743-3.08-1.743-4.377,0-6.728,4.621-6.728,9.282,0,5.187,2.189,9.281,6.687,9.281a6.386,6.386,0,0,0,6.809-5.836l1.377.162C245.737,76.392,242.373,80.16,236.658,80.16Z" fill="#231f20"/>
      <path d="M266.814,80.16c-2.593,0-4.173-1.3-4.5-3.485a8.111,8.111,0,0,1-6.849,3.485c-3.647,0-6.119-2.35-6.119-5.147a5.167,5.167,0,0,1,2.552-4.539c3.08-1.539,6.2-1.094,10.375-4.012V65.286c0-3.16-1.336-4.781-4.66-4.781-2.715,0-5.025,2.025-4.215,5.065l-1.338.447c-1.66-3.891,1.825-7.661,7.174-7.661,4.418,0,7.416,2.189,7.416,6.323,0,5.715-1.7,13.05,1.541,13.05,1.825,0,2.229-1.3,2.311-4.783h1.215C271.639,78.134,269.977,80.16,266.814,80.16Zm-9.361-2.391a4.7,4.7,0,0,0,4.822-4.823V67.88c-3,2.473-8.55,2.351-8.55,6.444C253.725,76.472,255.021,77.769,257.453,77.769Z" fill="#231f20"/>
      <path d="M273.545,79.35V78.215c4.092-.122,4.578-1.054,4.578-8.876V58.4c0-7.822.406-8.713-4.619-8.876V48.387l9.32-.365a88.853,88.853,0,0,0-.769,10.375V69.339c0,7.822.486,8.754,4.58,8.876V79.35Z" fill="#231f20"/>
    </g>
    <g>
      <path d="M176.258,115.292v-2.959c4.417-.121,4.539-.324,4.539-6.24V96.366c0-6.687-.122-7.012-4.539-7.093V86.355h15.359c8.39,0,13.212,1.419,13.212,9.039,0,6.808-5.593,9.037-11.672,9.037h-4.984v1.58c0,5.918.121,6.2,4.539,6.322v2.959Zm11.915-14.266h2.675c4.214,0,6.4-1.662,6.4-5.632,0-4.54-2.189-5.634-6.4-5.634h-2.675Z" fill="#231f20"/>
      <path d="M224.53,116.1c-3.485,0-5.227-1.581-5.795-3.81a7.51,7.51,0,0,1-6.889,3.81c-3.891,0-6.4-2.432-6.4-5.269a5.206,5.206,0,0,1,2.634-4.823c3.121-1.621,6.4-1.215,10.456-4.093v-.933c0-2.431-1.3-4.173-3.606-4.173-1.946,0-4.539,1.7-3.891,5.268h-3.364c-.892-4.985,3.121-8.227,9.038-8.227,6.119,0,9.037,2.269,9.037,6.525,0,5.836-1.3,12.077,1.095,12.077q1.7,0,1.7-4.134h2.634C231.1,114,229.069,116.1,224.53,116.1Zm-9.483-3.85c1.7,0,3.485-1.419,3.485-5.025v-3c-2.471,2.351-6.281,1.865-6.281,5.39A2.668,2.668,0,0,0,215.047,112.253Z" fill="#231f20"/>
      <path d="M232.552,115.292v-2.675c4.5-.04,4.256-.688,4.256-7.862,0-6.322.445-7.336-4.256-7.376V94.7h10.983v4.215c1.5-3.4,5.39-5.025,8.673-5.025,4.012,0,6.646,2.148,6.809,5.39.121,2.432-.163,3.85-.163,7.011,0,6.079.082,6.2,4.174,6.322v2.675H248.885v-2.675c3.4,0,3.2-.648,3.2-7.457,0-4.579-.648-7.214-4.053-7.214-2.309,0-4.215,1.7-4.5,6.2v1.013c0,6.444-.486,7.417,3.2,7.457v2.675Z" fill="#231f20"/>
      <path d="M282.085,111.847a8.53,8.53,0,0,1-7.821,4.256c-5.553,0-10.294-3.526-10.294-10.943a11.073,11.073,0,0,1,11.387-11.307,8.98,8.98,0,0,1,5.593,1.824v-1.54c0-6.363.446-7.417-4.255-7.457V84.005h10.943V105.16c0,6.444-.447,7.417,4.052,7.417v2.715h-8.51Zm-5.674,1.459c2.959,0,5.067-2.918,5.067-8.186,0-5.472-2.108-8.43-5.067-8.43-2.877,0-5.39,2.877-5.39,8.348C271.021,110.429,273.534,113.306,276.411,113.306Z" fill="#231f20"/>
      <path d="M304.578,116.1c-7.74,0-11.753-3.972-11.753-10.7,0-6.605,3.81-11.55,11.794-11.55,8.268,0,10.577,5.755,10.091,10.943H300.08c.04,6.322,2.27,8.185,6.16,8.185,3.08,0,5.39-1.5,5.066-5.187h3.323C315.237,111.28,312.562,116.1,304.578,116.1Zm-4.417-13.659h7.7c.406-4.9-1.338-6.322-3.323-6.322C303,96.122,300.647,96.893,300.161,102.444Z" fill="#231f20"/>
      <path d="M316.445,115.292v-2.675c4.5-.04,4.256-.688,4.256-7.862,0-6.322.445-7.336-4.256-7.376V94.7h10.984v4.174c1.459-3.363,5.065-4.984,8.348-4.984,3.648,0,6.242,1.945,6.647,4.9,1.5-3.324,5.349-4.9,8.592-4.9,3.89,0,6.524,2.148,6.686,5.39.122,2.432-.162,3.85-.162,7.011,0,6.079.082,6.2,4.175,6.322v2.675H347.571v-2.675c3.4,0,3.2-.648,3.2-7.457,0-4.579-.607-7.214-3.931-7.214-2.31,0-4.215,1.54-4.5,6.039,0,.689-.041,1.418-.041,2.31,0,6.079.284,6.2,3.972,6.322v2.675H332.332v-2.675c3.4,0,3.161-.648,3.161-7.457,0-4.579-.607-7.214-3.89-7.214-2.351,0-3.891,1.54-4.174,6.2v.608c0,6.849-.487,7.822,3.2,7.862v2.675Z" fill="#231f20"/>
      <path d="M363.233,115.292v-2.675c4.5-.04,4.256-.688,4.256-7.862,0-6.322.487-7.336-4.256-7.376V94.7h10.983v10.051c0,6.849-.487,7.822,4.053,7.862v2.675Zm7.092-24.4a4.023,4.023,0,1,1-.04-8.025,4.121,4.121,0,0,1,4.3,4.053A4.046,4.046,0,0,1,370.325,90.9Z" fill="#231f20"/>
      <path d="M390.794,116.1c-7.416,0-11.59-4.134-11.59-10.659,0-6.08,4.053-11.591,12.279-11.591,4.985,0,9.12,2.431,9.12,6.566,0,2.391-1.338,4.133-3.608,4.133-2.553,0-3.4-1.539-3.4-3,0-1.946,1.3-2.149,1.3-3.487,0-1.377-1.135-2.147-3.324-2.147-3.566,0-5.106,3.566-5.106,8.714,0,4.863,1.5,8.347,6,8.347,3.08,0,5.391-1.5,5.066-5.187h3.323C401.413,111.28,398.778,116.1,390.794,116.1Z" fill="#231f20"/>
    </g>
  </g>
</svg>
